<?xml version="1.0" encoding="UTF-8"?>
<!DOCTYPE svg PUBLIC "-//W3C//DTD SVG 1.1//EN" "http://www.w3.org/Graphics/SVG/1.1/DTD/svg11.dtd">
<!-- Creator: CorelDRAW 2018 (64-Bit) -->
<svg xmlns="http://www.w3.org/2000/svg" xml:space="preserve" width="1.26405in" height="2.78363in" version="1.1" style="shape-rendering:geometricPrecision; text-rendering:geometricPrecision; image-rendering:optimizeQuality; fill-rule:evenodd; clip-rule:evenodd"
viewBox="0 0 64.22 141.41"
 xmlns:xlink="http://www.w3.org/1999/xlink">
 <defs>
  <style type="text/css">
   <![CDATA[
    .str1 {stroke:#D2D3D5;stroke-width:1.06;stroke-miterlimit:2.61313}
    .str0 {stroke:#E6E7E8;stroke-width:0.35;stroke-miterlimit:2.61313}
    .fil2 {fill:none}
    .fil1 {fill:#D2D3D5}
    .fil0 {fill:url(#id0)}
   ]]>
  </style>
  <linearGradient id="id0" gradientUnits="userSpaceOnUse" x1="26.45" y1="4.2" x2="37.84" y2="145.34">
   <stop offset="0" style="stop-opacity:1; stop-color:#74C04E"/>
   <stop offset="0.419608" style="stop-opacity:1; stop-color:#5DA452"/>
   <stop offset="1" style="stop-opacity:1; stop-color:#458756"/>
  </linearGradient>
 </defs>
 <g id="PowerClip_x0020_Contents">
  <metadata id="CorelCorpID_0Corel-Layer"/>
  <g id="_2310967007648">
   <path class="fil0" d="M39.57 137.07c6.1,-8.72 23.12,-57.63 24.24,-69.64 1.68,-18.07 -1.48,-45.34 -16.44,-59.93 -21.55,-21.03 -49.34,5.71 -47.26,36.35 1.04,15.32 26.74,27.79 25.57,65.03 -0.27,8.6 4.89,35.89 9.72,28.27 0.27,-0.43 3.98,0.19 4.17,-0.08z"/>
   <path class="fil1 str0" d="M21.62 12.17c-0.07,0 0.05,0.34 -0.08,0.93 -1.89,8.73 17.23,27.89 19.6,42.18 5.58,33.66 -5.59,78.2 -5.76,85.32 -0.01,0.34 0.26,0.62 0.6,0.63l0 0c0.27,-0.21 0.59,-0.27 0.63,-0.6 3.33,-28.21 7.93,-64.51 5.38,-85.29 -1.89,-15.38 -18.06,-27.37 -19.77,-42.54 -0.04,-0.34 -0.4,-0.64 -0.6,-0.63z"/>
   <path class="fil2 str1" d="M36.61 42.46c-9.11,-8.28 -10.8,2.99 -18.65,-6.5 -1.66,-2 -2.05,-2.28 -4.35,-2.49"/>
   <path class="fil2 str1" d="M28.12 27.89c3.83,-2.81 13.56,-6.3 9.12,-12.6"/>
   <path class="fil2 str1" d="M41.82 62.32c-10.64,-5.86 -10.52,-8.58 -19.69,-5.62"/>
   <path class="fil2 str1" d="M41 50.75c0.08,-0.38 4.75,-4.27 7.06,-9.15 2.33,-4.92 2.31,-10.82 2.16,-9.43"/>
   <path class="fil2 str1" d="M41.99 78.54c2.36,-2.11 11.94,-17.38 11.09,-21.7"/>
  </g>
 </g>
</svg>
