<?xml version="1.0" encoding="UTF-8"?>
<!DOCTYPE svg PUBLIC "-//W3C//DTD SVG 1.1//EN" "http://www.w3.org/Graphics/SVG/1.1/DTD/svg11.dtd">
<!-- Creator: CorelDRAW 2018 (64-Bit) -->
<svg xmlns="http://www.w3.org/2000/svg" xml:space="preserve" width="1.07311in" height="0.271055in" version="1.1" style="shape-rendering:geometricPrecision; text-rendering:geometricPrecision; image-rendering:optimizeQuality; fill-rule:evenodd; clip-rule:evenodd"
viewBox="0 0 120.25 30.37"
 xmlns:xlink="http://www.w3.org/1999/xlink">
 <defs>
  <style type="text/css">
   <![CDATA[
    .fil0 {fill:#FEFEFE}
    .fil1 {fill:#FEFEFE;fill-rule:nonzero}
   ]]>
  </style>
 </defs>
 <g id="Layer_x0020_1">
  <metadata id="CorelCorpID_0Corel-Layer"/>
  <path class="fil0" d="M90.6 8.84c0,1.25 2.21,4.97 2.21,5.71 0,1.42 -2.95,3.44 -2.95,5.16 0,1.44 1.34,1.73 2.45,2.16l3.43 1.36c0.9,0.47 0.76,1.92 0.99,3.62 0.56,4.14 2.59,2.72 4.92,1.7 0.39,-0.17 2.5,-1.14 2.81,-1.17 1.61,-0.15 4.45,4.85 6.55,2.24 0.45,-0.56 1.58,-4.14 2.08,-5.1 0.88,-1.7 6.43,-0.01 6.43,-3.15 0,-0.52 -0.89,-2.34 -1.13,-2.92 -0.22,-0.53 -1.16,-2.4 -1.16,-2.76 0.03,-1.17 3.02,-3.3 3.02,-5.18 0,-1.81 -4.03,-2.42 -5.85,-3.36 -1.9,-0.98 0.26,-6.4 -3.18,-6.4 -0.88,0 -5.03,2.21 -5.71,2.21 -1.17,0 -3.17,-2.95 -5.16,-2.95 -1.91,0 -2.38,4.11 -3.36,5.85 -0.97,1.73 -6.4,-0.06 -6.4,3zm2.62 0.55c0.39,1.05 1.99,4.23 2.01,5.16 0.05,1.7 -1.96,3.69 -2.68,4.78l0.5 0.3c0.99,0.48 3.97,1.44 4.55,1.9 1.61,1.27 0.95,4.43 1.65,5.45 0.91,-0.37 4.33,-1.98 5.16,-2.02 2.11,-0.08 3.47,2.01 4.79,2.68 0.36,-0.4 0.88,-1.88 1.09,-2.43 0.32,-0.81 0.62,-1.84 1.05,-2.45 1.05,-1.46 3.48,-1.38 5.49,-1.7 -0.04,-1.16 -1.91,-3.85 -1.98,-5.24 -0.11,-2.14 2.16,-3.56 2.72,-5.01 -0.85,-0.19 -4.43,-1.58 -5.03,-2.02 -1.29,-0.95 -1.32,-3.49 -1.58,-5.44 -1.26,0.08 -3.88,1.93 -5.28,1.99 -1.88,0.07 -3.68,-2.01 -4.8,-2.72 -0.78,0.9 -1.34,3.79 -2.17,4.94 -1.36,1.89 -4.07,0.83 -5.51,1.82z"/>
  <path class="fil0" d="M103.49 8.22c-3.44,0.82 -6.42,4.18 -5.39,8.61 0.77,3.31 4.25,6.26 8.55,5.31 3.29,-0.73 6.37,-4.24 5.35,-8.55 -0.78,-3.31 -4.16,-6.4 -8.51,-5.36zm0.51 1.45c-7.32,1.44 -5.15,12.45 2.12,11 2.68,-0.53 5.07,-3.16 4.44,-6.53 -0.52,-2.74 -3.22,-5.13 -6.56,-4.47z"/>
  <path class="fil1" d="M-0 25.15l4.07 0 0.8 -3.92 4.99 0 0 -0.06 0.8 3.97 4.39 0 -4.55 -20.01 -5.95 0 -4.55 20.01zm5.39 -6.63l1.92 -9.89 0.08 0 1.96 9.89 -3.95 0zm17.92 6.92c4.31,0 6.55,-1.83 6.55,-5.03l0 -6.55 -6.35 0 0 2.86 2.2 0 0 3.92c0,1.43 -0.88,1.94 -2.28,1.94 -1.4,0 -2.27,-0.51 -2.27,-1.94l0 -10.95c0,-1.43 0.88,-1.97 2.27,-1.97 1.4,0 2.28,0.54 2.28,1.97l0 1.92 4.15 0 0 -1.72c0,-3.2 -2.24,-5.03 -6.55,-5.03 -4.31,0 -6.55,1.83 -6.55,5.03l0 10.52c0,3.2 2.24,5.03 6.55,5.03zm8.5 -0.29l12.85 0 0 -2.86 -8.14 0 8.14 -14.35 0 -2.8 -12.45 0 0 2.86 7.74 0 -8.14 14.35 0 2.8zm15.73 0l4.23 0 0 -3.03 -4.23 0 0 3.03zm7.5 0l6.71 0c4.39,0 6.55,-1.74 6.55,-4.95l0 -10.12c0,-3.2 -2.16,-4.95 -6.55,-4.95l-6.71 0 0 20.01zm4.39 -2.86l0 -14.29 2.23 0c1.4,0 2.24,0.51 2.24,1.94l0 10.41c0,1.43 -0.84,1.94 -2.24,1.94l-2.23 0zm10.94 2.86l12.85 0 0 -2.86 -8.14 0 8.14 -14.35 0 -2.8 -12.45 0 0 2.86 7.74 0 -8.14 14.35 0 2.8z"/>
 </g>
</svg>
