<?xml version="1.0" encoding="UTF-8"?>
<!DOCTYPE svg PUBLIC "-//W3C//DTD SVG 1.1//EN" "http://www.w3.org/Graphics/SVG/1.1/DTD/svg11.dtd">
<!-- Creator: CorelDRAW 2018 (64-Bit) -->
<svg xmlns="http://www.w3.org/2000/svg" xml:space="preserve" width="0.46628in" height="0.394205in" version="1.1" style="shape-rendering:geometricPrecision; text-rendering:geometricPrecision; image-rendering:optimizeQuality; fill-rule:evenodd; clip-rule:evenodd"
viewBox="0 0 13.2 11.16"
 xmlns:xlink="http://www.w3.org/1999/xlink">
 <defs>
  <style type="text/css">
   <![CDATA[
    .str1 {stroke:#373435;stroke-width:0.59;stroke-linecap:round;stroke-miterlimit:2.61313}
    .str0 {stroke:#373435;stroke-width:0.59;stroke-linecap:round;stroke-miterlimit:2.61313}
    .str5 {stroke:#373435;stroke-width:0.39;stroke-linecap:round;stroke-miterlimit:2.61313}
    .str4 {stroke:#373435;stroke-width:0.39;stroke-linecap:round;stroke-miterlimit:2.61313}
    .str3 {stroke:#373435;stroke-width:0.2;stroke-linecap:round;stroke-miterlimit:2.61313}
    .str2 {stroke:#373435;stroke-width:0.2;stroke-linecap:round;stroke-miterlimit:2.61313}
    .fil0 {fill:none}
   ]]>
  </style>
 </defs>
 <g id="Layer_x0020_1">
  <metadata id="CorelCorpID_0Corel-Layer"/>
  <g id="_2310972462128">
   <path class="fil0 str0" d="M1.63 7.88c1.51,-1.51 4.04,-0.69 4.54,0.93 0.44,0 0.01,-3.55 4.55,-3.2"/>
   <line class="fil0 str1" x1="5.83" y1="8.8" x2="6.66" y2= "8.76" />
  </g>
  <g id="_2310972462480">
   <path class="fil0 str2" d="M7.11 0.91c0.54,-0.54 1.43,-0.24 1.61,0.33 0.16,0 0,-1.26 1.62,-1.14"/>
   <line class="fil0 str3" x1="8.6" y1="1.24" x2="8.9" y2= "1.23" />
  </g>
  <g id="_2310972463760">
   <path class="fil0 str4" d="M5.8 10.17c-0.99,-0.84 -2.47,-0.21 -2.69,0.8 -0.27,0.02 -0.19,-2.14 -2.91,-1.7"/>
   <line class="fil0 str5" x1="3.31" y1="10.94" x2="2.8" y2= "10.96" />
  </g>
  <g id="_2310972464432">
   <path class="fil0 str4" d="M8.12 8.98c1.07,-0.39 2.1,0.57 1.98,1.46 0.21,0.1 0.79,-1.71 2.9,-0.53"/>
   <line class="fil0 str5" x1="9.94" y1="10.36" x2="10.35" y2= "10.52" />
  </g>
 </g>
</svg>
