<?xml version="1.0" encoding="UTF-8"?>
<!DOCTYPE svg PUBLIC "-//W3C//DTD SVG 1.1//EN" "http://www.w3.org/Graphics/SVG/1.1/DTD/svg11.dtd">
<!-- Creator: CorelDRAW 2018 (64-Bit) -->
<svg xmlns="http://www.w3.org/2000/svg" xml:space="preserve" width="3.64274in" height="3.93701in" version="1.1" style="shape-rendering:geometricPrecision; text-rendering:geometricPrecision; image-rendering:optimizeQuality; fill-rule:evenodd; clip-rule:evenodd"
viewBox="0 0 1064.64 1150.64"
 xmlns:xlink="http://www.w3.org/1999/xlink">
 <defs>
  <style type="text/css">
   <![CDATA[
    .fil0 {fill:#F1E2EE}
   ]]>
  </style>
 </defs>
 <g id="Layer_x0020_1">
  <metadata id="CorelCorpID_0Corel-Layer"/>
  <path class="fil0" d="M427.92 1150.64c25.09,-43.86 52.44,-94.92 86.16,-157.7 35.97,-66.99 21.42,-122.78 11.37,-180.92l-1.99 1.41 -0.97 0.68c-1.04,0.72 -2.09,1.45 -3.14,2.16l-1.11 0.75c-0.99,0.67 -1.98,1.33 -2.97,1.99l-1.24 0.82c-0.97,0.64 -1.95,1.27 -2.93,1.9l-1.25 0.8c-1.01,0.65 -2.03,1.29 -3.05,1.92l-1.19 0.74c-1.08,0.67 -2.16,1.33 -3.25,1.99l-1 0.6 -2.03 1.22 -2.25 1.33 -0 0 -2.22 1.29 -0.04 0.02 -2.27 1.3 -2.17 1.23 -0.68 0.38c-1.22,0.68 -2.43,1.35 -3.66,2.02l-1.28 0.69c-1.06,0.57 -2.12,1.14 -3.18,1.71l-1.26 0.67c-1.12,0.59 -2.24,1.18 -3.36,1.76l-1.04 0.54c-1.22,0.63 -2.45,1.25 -3.68,1.88l-0.74 0.38c-1.16,0.58 -2.32,1.16 -3.48,1.73l-1.36 0.67 -2.08 1.01 -0 0 -2.38 1.14 -0.03 0.01 -2.22 1.05 -0.14 0.07 -2.4 1.12 -1.89 0.88 -1.95 0.9 -2.83 1.28 -1.74 0.78 -2.72 1.2 -2.04 0.89 -2.4 1.03 -2.38 1.02 -1.36 0.58c-1.1,0.46 -2.2,0.92 -3.31,1.38l-1.48 0.61 -3.13 1.28 -1.66 0.67c-1.08,0.43 -2.16,0.86 -3.24,1.29l-1.28 0.51c-1.13,0.45 -2.26,0.89 -3.4,1.33l-1.24 0.48 -3.04 1.16 -1.86 0.7 -2.78 1.04 -1.66 0.62 -2.71 0.99 -1.89 0.69 -3.35 1.2 -0.44 0.16 -0.54 0.19c-1.12,0.4 -2.24,0.79 -3.36,1.18l-1.22 0.42c-1.22,0.42 -2.44,0.84 -3.66,1.26l-0.99 0.34 -3.87 1.31 -0.58 0.19c-1.39,0.46 -2.78,0.93 -4.17,1.38l-0.36 0.12 -4.07 1.33 -0.32 0.1 -0.23 0.07c-1.46,0.47 -2.92,0.94 -4.39,1.4 -98.32,31.1 -204.79,53.68 -280.28,123.93 -0.59,0.55 -1.17,1.1 -1.75,1.65l-0.79 0.75 -1.08 1.03 -0.71 0.69 -1.11 1.08 -0.71 0.7 -1.14 1.14 -0.61 0.61 -1.53 1.55 -0.84 0.87 -1.06 1.1 -0.62 0.64 -1.17 1.23 -0.62 0.66 -1.21 1.29 -0.41 0.44 -1.56 1.69 -0.15 0.16 -0.12 0.13 -1.48 1.64 -0.04 0.04 -0.77 0.86 -0.89 1 -0.72 0.83 -0.97 1.12 -0.62 0.72 -1.12 1.31 -0.46 0.54 -1.21 1.44 -0.4 0.48 -0.02 0.02c-0.47,0.56 -0.94,1.13 -1.41,1.7l-0.08 0.09 -0.69 0.85 -0.97 1.19 -0.51 0.63 -1.19 1.48 -0.33 0.41 -1.32 1.68 -0.29 0.36 -1.13 1.46 -1.04 1.36 -0.81 1.06 -0.71 0.95 -0.72 0.97 -0.7 0.94 -0.86 1.17 -0.63 0.86c-0.92,1.26 -1.84,2.53 -2.74,3.81l-0.62 0.88 -0.94 1.33 -0.37 0.53 -0.96 1.39 -0.69 1.01 -0.57 0.84 -0.75 1.11 -0.11 0.17 -1.2 1.79 -0.03 0.05 -1.37 2.07 -0.35 0.54 -0.97 1.49 -0.55 0.85 -0.8 1.24 -0.52 0.82 -0.83 1.31 -0.54 0.85 -0.07 0.11 -1.17 1.88 -0.05 0.08 -0.13 0.22 -1.11 1.81 -0.65 1.07 -0.55 0.91 -0.66 1.1 -0.77 1.3 -0.46 0.78 -0.86 1.45 -0.34 0.58 -0.12 0.2 -1.11 1.92 -0 0 -0.68 1.18 -0.55 0.96 -0.61 1.09 -0.64 1.13 -0.62 1.1 -0.45 0.8 -0.83 1.49 -1.03 1.88 -0.04 0.07 -1.06 1.96 -0.03 0.06 -0.64 1.19 -0.53 0.99 -0.71 1.34 -0.39 0.73 -0.71 1.36 -0.13 0.24 -0.84 1.61 -0.19 0.37 -1.02 1.99 -0.03 0.06 -0.99 1.94 -0.81 1.61 -0.32 0.63 -0.66 1.33 -0.55 1.11 -0.52 1.05 -0.14 0.29 -0.87 1.78 -0.12 0.24 -0.98 2.02 -0.09 0.19 -0.88 1.83c-4.42,9.22 -8.63,18.6 -12.69,28.09l427.92 0zm194.76 -589.11c108.68,-70.06 319.74,-120.33 402.96,-249.28 110.34,-170.96 -33.31,-233.64 -183.9,-312.25l-242.45 0c-0.59,0.65 -1.16,1.3 -1.72,1.95 -53.48,62.33 -85.24,144.73 -78.29,227.38 6.91,82.12 45.51,157.59 74.86,234.59l1.11 2.94 0.25 0.67 0.1 0.27 1.17 3.14 0.08 0.22 0.05 0.13 1.09 2.97 0.2 0.55 0.11 0.31 1.07 2.96 0.14 0.39 0.09 0.26 0.07 0.2 0.99 2.78 0.15 0.43 0.06 0.18c0.81,2.29 1.6,4.59 2.39,6.89l0.1 0.3 0.04 0.11 1.1 3.27 0.11 0.32 0.17 0.52 1 3.03 0.06 0.17 0.09 0.27c0.35,1.07 0.7,2.14 1.04,3.21l0.15 0.46 1.04 3.28 0.06 0.2 0.01 0.04 0.07 0.22 0.97 3.12 0.25 0.81 0.81 2.67 0.37 1.24 0.83 2.83 0.21 0.73 0.81 2.82 0.36 1.27 0.73 2.62 0.13 0.48 0.08 0.28 0.85 3.13 0.1 0.38 0.09 0.36c0.28,1.05 0.56,2.1 0.83,3.14l0.22 0.84 0.67 2.63 0.26 1.03c0.25,1.01 0.5,2.02 0.75,3.03l0.21 0.87c0.23,0.95 0.45,1.89 0.67,2.84l0.19 0.82c0.23,0.98 0.45,1.96 0.67,2.95l0.24 1.09c0.2,0.88 0.39,1.76 0.58,2.65l0.26 1.23 0.52 2.5 0.27 1.31c0.2,0.96 0.39,1.93 0.58,2.89l0.13 0.68c0.21,1.1 0.42,2.21 0.63,3.31l0.03 0.17 0.03 0.18z"/>
 </g>
</svg>
